<svg width="17" height="16" viewBox="0 0 17 16" fill="none" xmlns="http://www.w3.org/2000/svg">
<path d="M16 4.42062C15.4422 4.66154 14.8478 4.82123 14.2281 4.89877C14.8656 4.524 15.3522 3.93508 15.5809 3.22523C14.9866 3.57415 14.3303 3.82062 13.6309 3.95815C13.0666 3.36646 12.2622 3 11.3847 3C9.68219 3 8.31156 4.36062 8.31156 6.02862C8.31156 6.26862 8.33219 6.49938 8.38281 6.71908C5.82625 6.59631 3.56406 5.38985 2.04437 3.552C1.77906 4.00523 1.62344 4.524 1.62344 5.08246C1.62344 6.13108 2.17188 7.06062 2.98937 7.59877C2.49531 7.58954 2.01063 7.44831 1.6 7.22585C1.6 7.23508 1.6 7.24708 1.6 7.25908C1.6 8.73046 2.66594 9.95262 4.06375 10.2342C3.81344 10.3015 3.54063 10.3338 3.2575 10.3338C3.06063 10.3338 2.86187 10.3228 2.67531 10.2822C3.07375 11.4812 4.20438 12.3628 5.54875 12.3914C4.5025 13.1972 3.17406 13.6828 1.73594 13.6828C1.48375 13.6828 1.24187 13.6717 1 13.6412C2.36219 14.5062 3.97656 15 5.7175 15C11.3763 15 14.47 10.3846 14.47 6.384C14.47 6.25015 14.4653 6.12092 14.4587 5.99262C15.0691 5.56615 15.5819 5.03354 16 4.42062Z" fill="#4D4D4D"/>
</svg>
