<svg width="17" height="16" viewBox="0 0 17 16" fill="none" xmlns="http://www.w3.org/2000/svg">
<g clip-path="url(#clip0)">
<path d="M16.7664 16.0004V15.9997H16.7704V10.1317C16.7704 7.26102 16.1474 5.04968 12.7641 5.04968C11.1377 5.04968 10.0462 5.93502 9.60062 6.77435H9.55357V5.31768H6.3457V15.9997H9.68597V10.7104C9.68597 9.31768 9.95212 7.97102 11.6908 7.97102C13.404 7.97102 13.4295 9.56035 13.4295 10.7997V16.0004H16.7664Z" fill="#4D4D4D"/>
<path d="M0.905273 5.31787H4.24958V15.9999H0.905273V5.31787Z" fill="#4D4D4D"/>
<path d="M2.5766 0C1.50731 0 0.639648 0.860667 0.639648 1.92133C0.639648 2.982 1.50731 3.86067 2.5766 3.86067C3.64589 3.86067 4.51356 2.982 4.51356 1.92133C4.51288 0.860667 3.64522 0 2.5766 0V0Z" fill="#4D4D4D"/>
</g>
<defs>
<clipPath id="clip0">
<rect width="16.1301" height="16" fill="white" transform="translate(0.639648)"/>
</clipPath>
</defs>
</svg>
